<svg width="50" height="50" viewBox="0 0 50 50" fill="none" xmlns="http://www.w3.org/2000/svg">
<circle cx="25" cy="25" r="25" fill="#FEFFBE"/>
<path d="M10.9818 20.6263L10.9938 20.5665C12.2863 20.6143 12.5137 20.8058 12.5376 21.6316V22.4335H12.5855C12.7171 21.6436 13.16 19.4893 13.4232 18.6755H13.3754L12.9924 19.4893C12.6214 20.2553 12.3581 20.4587 11.0177 20.5066C11.7118 17.7061 11.8076 17.383 11.9991 17.0838C13.8421 17.1915 14.1294 17.5146 14.3328 18.6635L14.4764 19.8244H14.5243C14.6559 18.8431 14.8235 17.8019 15.003 17H9.49776V17.0479L10.0243 17.1197C10.5509 17.2035 10.5988 17.2394 9.71318 20.7819C8.9592 23.7978 8.9233 23.9414 8.38474 24.0252L7.75044 24.1329V24.1808H13.3036C13.519 23.355 13.89 22.2779 14.249 21.2486H14.2012L13.4592 22.5292C12.7411 23.6901 12.2025 23.9653 10.2637 24.085C10.2278 23.8217 10.2637 23.4747 10.9818 20.6263Z" fill="#0B0B0B"/>
<path d="M19.8185 24.3483L19.8664 24.3364C19.9143 24.0132 20.0818 23.2951 20.2374 22.6848C21.494 17.6223 21.7095 17.2872 22.2839 17.1316L22.5951 17.0479V17H19.4954V17.0479L20.6204 17.2274C21.2068 17.3351 21.3624 17.6223 20.2972 22.1821C19.4236 20.5186 18.6576 18.4362 18.143 17H15.4263L15.4383 17.0479L15.9289 17.1436C16.1922 17.2035 16.3598 17.2992 16.5273 17.5027C15.0074 23.355 14.8997 23.8576 14.2415 24.0252L13.7388 24.1329V24.1808H17.9515V24.1329L16.6351 23.8935C15.7255 23.6901 15.3305 22.9241 16.5872 17.5745C16.6829 17.7181 16.7787 17.8856 16.8983 18.113C17.6643 19.7167 19.1723 22.9361 19.8185 24.3483Z" fill="#0B0B0B"/>
<path d="M26.4479 24.1329L25.7179 24.0372C25.0118 23.9414 24.9759 23.8457 25.8495 20.3271C26.3761 18.2207 26.5796 17.5027 26.807 17.0838C28.0636 17.2513 28.1354 17.5146 28.2312 18.6635L28.3628 20.4827H28.4107C28.5663 19.2619 28.7817 17.9814 29.0091 17H23.2286C22.9294 17.9814 22.4746 19.2619 22.0078 20.4827H22.0557L23.1328 18.6635C23.827 17.5386 24.0663 17.2154 25.3229 17.0718C25.3229 17.4667 25.1554 18.2447 24.5211 20.7819C23.7791 23.7619 23.7551 23.9175 22.9892 24.0252L22.2472 24.1329V24.1808H26.436L26.4479 24.1329Z" fill="#0B0B0B"/>
<path d="M30.8252 20.6263L30.8372 20.5665C32.1297 20.6143 32.3571 20.8058 32.381 21.6316V22.4335H32.4289C32.5606 21.6436 33.0034 19.4893 33.2667 18.6755H33.2188L32.8358 19.4893C32.4648 20.2553 32.2015 20.4587 30.8611 20.5066C31.5553 17.7061 31.651 17.383 31.8425 17.0838C33.6856 17.1915 33.9728 17.5146 34.1762 18.6635L34.3199 19.8244H34.3677C34.4994 18.8431 34.6669 17.8019 34.8464 17H29.3412V17.0479L29.8678 17.1197C30.3944 17.2035 30.4422 17.2394 29.5566 20.7819C28.8026 23.7978 28.7667 23.9414 28.2282 24.0252L27.5939 24.1329V24.1808H33.147C33.3624 23.355 33.7334 22.2779 34.0925 21.2486H34.0446L33.3026 22.5292C32.5845 23.6901 32.0459 23.9653 30.1071 24.085C30.0712 23.8217 30.1071 23.4747 30.8252 20.6263Z" fill="#0B0B0B"/>
<path d="M38.0463 20.0279C37.6035 20.0279 37.2803 20.0279 36.9213 19.98C37.4599 17.7779 37.6274 17.359 37.771 17.1436C37.9745 17.1077 38.1779 17.0718 38.3934 17.0718C39.267 17.0718 39.6859 17.4907 39.6859 18.1968C39.6859 19.1303 39.0157 20.0279 38.0463 20.0279ZM36.7777 20.5305C36.8256 20.363 36.8615 20.1954 36.8974 20.0399C37.1128 20.1835 37.4239 20.2912 37.7471 20.363C38.1181 22.0385 38.4891 23.2592 38.8601 24.1808H40.7869V24.1329C40.4159 23.9534 40.3082 23.9175 40.1526 23.6662C39.7697 23.0558 39.255 21.9667 38.6806 20.4707C39.8175 20.4707 40.9066 19.4415 40.9066 18.2566C40.9066 17.5146 40.5356 17 38.8362 17H35.3176L35.3056 17.0479L35.8561 17.1316C36.3468 17.2154 36.3588 17.3351 35.533 20.6502C34.7312 23.8217 34.6713 23.9294 34.2524 24.0132L33.5463 24.1329L33.5344 24.1808H37.5556V24.1329L36.4904 23.9893C36.0117 23.9175 35.9639 23.7619 36.7777 20.5305Z" fill="#0B0B0B"/>
<path d="M10.7074 30.7421C11.3537 28.169 11.5452 27.5945 11.7845 27.2833C11.8922 27.2714 12.0119 27.2714 12.1555 27.2714C13.4241 27.2714 14.214 27.9057 14.214 29.5213C14.214 31.508 13.5558 34.0093 10.0133 34.2965C10.0013 33.6981 10.121 33.0997 10.7074 30.7421ZM12.73 27.1995H9.28323L9.27126 27.2474L9.77391 27.3192C10.3005 27.403 10.2885 27.5227 9.46274 30.8498C8.67286 33.9973 8.62499 34.129 7.97872 34.2367L7.5 34.3324V34.3803H11.1502C13.6037 34.3803 15.4228 32.2141 15.4228 29.6769C15.4228 28.145 14.609 27.1995 12.73 27.1995Z" fill="#0B0B0B"/>
<path d="M17.7112 30.8258L17.7232 30.766C19.0157 30.8139 19.2431 31.0054 19.267 31.8311V32.633H19.3149C19.4465 31.8431 19.8894 29.6889 20.1527 28.8751H20.1048L19.7218 29.6889C19.3508 30.4548 19.0875 30.6583 17.7471 30.7062C18.4412 27.9057 18.537 27.5825 18.7285 27.2833C20.5715 27.391 20.8588 27.7142 21.0622 28.8631L21.2058 30.024H21.2537C21.3854 29.0426 21.5529 28.0014 21.7324 27.1995H16.2272V27.2474L16.7538 27.3192C17.2803 27.403 17.3282 27.4389 16.4426 30.9814C15.6886 33.9973 15.6527 34.141 15.1141 34.2247L14.4798 34.3324V34.3803H20.033C20.2484 33.5545 20.6194 32.4774 20.9784 31.4482H20.9306L20.1886 32.7287C19.4705 33.8896 18.9319 34.1649 16.9931 34.2846C16.9572 34.0213 16.9931 33.6742 17.7112 30.8258Z" fill="#0B0B0B"/>
<path d="M25.9045 34.3324L25.1744 34.2367C24.4683 34.141 24.4324 34.0452 25.3061 30.5266C25.8327 28.4203 26.0361 27.7022 26.2635 27.2833C27.5201 27.4509 27.5919 27.7142 27.6877 28.8631L27.8193 30.6822H27.8672C28.0228 29.4615 28.2382 28.1809 28.4656 27.1995H22.6851C22.3859 28.1809 21.9311 29.4615 21.4644 30.6822H21.5122L22.5893 28.8631C23.2835 27.7381 23.5228 27.415 24.7795 27.2714C24.7795 27.6663 24.6119 28.4442 23.9776 30.9814C23.2356 33.9614 23.2117 34.117 22.4457 34.2247L21.7037 34.3324V34.3803H25.8925L25.9045 34.3324Z" fill="#0B0B0B"/>
<path d="M31.9704 27.1756C33.0953 27.1756 33.6698 28.0612 33.6698 29.258C33.6698 31.4362 32.5807 34.3923 30.9411 34.3923C29.8281 34.3803 29.1938 33.6263 29.1938 32.274C29.1938 30.2274 30.3068 27.1756 31.9704 27.1756ZM34.9504 29.5931C34.9504 28.0612 33.9092 27.0799 32.2696 27.0799C29.5528 27.0799 27.9371 29.2221 27.9371 31.879C27.9371 33.5186 28.9664 34.5 30.5701 34.5C33.2749 34.5 34.9504 32.2022 34.9504 29.5931Z" fill="#0B0B0B"/>
<path d="M36.6237 34.3324L36.0134 34.2726C35.5945 34.2247 35.5107 34.0213 35.5706 33.6622C35.6543 33.1716 36.2767 32.3218 37.5094 31.0293C37.5453 31.0891 37.5692 31.137 37.5931 31.1968C38.0838 32.2381 38.766 33.5785 38.766 33.9016C38.766 34.117 38.6343 34.2247 38.1796 34.2726L37.5453 34.3324V34.3803H40.8125L40.8245 34.3324L40.6689 34.2367C40.3218 33.9973 39.7713 32.7886 38.754 30.5266C40.8843 28.4442 41.8777 27.5227 42.3324 27.3192L42.5 27.2474V27.1995H39.508V27.2474L40.1303 27.3073C40.5492 27.3551 40.633 27.5347 40.5612 27.8817C40.4894 28.3245 40.0705 29.0785 38.7301 30.4668L38.6822 30.3711C38.2035 29.3298 37.4974 28.0134 37.4974 27.6902C37.4854 27.4628 37.641 27.3551 38.0838 27.3073L38.7301 27.2474V27.1995H35.5107L35.4987 27.2474L35.6304 27.3551C35.9655 27.5825 36.4801 28.8272 37.4854 30.9695C35.2714 33.1237 34.2062 34.0452 33.7514 34.2606L33.5839 34.3324V34.3803H36.6237V34.3324Z" fill="#0B0B0B"/>
</svg>
