 <svg viewBox="0 0 1191 248" fill="none" xmlns="http://www.w3.org/2000/svg">
            <path
              d="M102.525 13.6C172.925 13.6 218.125 46 218.125 121.6C218.125 200 178.125 234.8 58.1248 234.4V16C68.9248 15.2 87.3248 13.6 102.525 13.6ZM110.125 4H0.924805V13.2L33.7248 16C42.9248 16.8 42.9248 20.8 42.9248 126.8C42.9248 226 43.7248 230.8 33.7248 231.6L0.924805 234.8V244H111.725C185.725 244 237.325 189.6 237.325 115.6C237.325 46.4 193.325 4 110.125 4Z"
              fill="white" />
            <path
              d="M448.39 161.6H439.99L431.59 211.6C427.99 233.6 421.99 233.6 310.39 233.6C310.39 223.2 310.39 201.6 310.39 126.4C381.59 126.4 384.79 126.4 387.99 142L393.59 171.2H400.39C398.39 138.8 396.79 106.4 394.79 74H387.59L385.19 103.6C383.99 116.8 381.59 117.6 310.39 117.2C310.39 49.2 310.39 25.6 310.39 14.4C416.79 14.4 423.99 13.6 427.99 37.2L435.99 85.6H444.79C442.39 58.4 440.79 30.8 438.39 4H253.19V13.2L285.19 16C295.19 16.8 295.19 19.2 295.19 125.6C295.19 226.8 295.19 230.4 287.99 231.2L253.59 234.8V244H443.99C445.59 216.8 446.79 189.2 448.39 161.6Z"
              fill="white" />
            <path
              d="M642.14 234.8L610.54 231.6C590.94 229.2 591.34 228.4 591.34 124V14.4C664.14 14.4 664.94 14 670.14 37.6L684.54 104.8L693.34 103.6C689.34 70.4 684.54 37.2 680.54 4H483.34L473.74 103.6L482.54 104.4L494.94 36.8C499.34 14 500.94 14.4 576.14 14.4V123.6C576.14 228.4 575.74 229.2 558.14 231.2L524.94 234.8V244H642.14V234.8Z"
              fill="white" />
            <path
              d="M725.359 110.4C725.359 49.6 759.759 12.8 819.359 12.8C883.359 12.8 919.759 56 919.759 124.8C919.759 192.8 885.359 235.2 825.759 235.2C760.959 235.2 725.359 187.6 725.359 110.4ZM938.559 114.4C938.559 47.6 896.159 0 826.959 0C756.159 0 706.559 48.8 706.559 118.4C706.559 194 749.359 248 818.159 248C887.759 248 938.559 193.2 938.559 114.4Z"
              fill="white" />
            <path
              d="M1031.77 234.8L997.775 232.8C986.175 232 984.975 230 984.975 225.2C984.975 214.4 1004.97 189.6 1058.97 127.6L1059.77 128.4C1140.57 218.4 1144.57 222 1144.57 228C1144.57 230.8 1140.97 232.4 1133.77 232.8L1094.57 234.8V244H1190.97V234.8L1183.37 232.4C1165.37 227.6 1131.37 186.8 1071.37 120.4C1147.37 33.6 1157.77 20.4 1173.37 15.6L1180.97 13.2V4H1092.97V13.2L1124.57 14.4C1135.77 15.2 1138.57 17.6 1138.57 22.8C1138.57 33.2 1116.57 54 1065.37 113.6C1001.37 42.8 986.975 31.2 986.975 22C986.975 18 990.975 14.8 1002.17 14.4L1036.17 13.2V4H942.175V13.2L949.775 15.6C962.975 19.6 971.775 30.4 1052.17 120C970.175 216.8 963.775 229.6 948.975 232.8L938.175 234.8V244H1031.77V234.8Z"
              fill="white" />
          </svg>